<?xml version="1.0" encoding="utf-8"?><!-- Icon for https://skills.sh/t4sh/skills4sh/eleventy-nunjucks -->
<svg width="800px" height="800px" viewBox="0 0 24 24" fill="none" xmlns="http://www.w3.org/2000/svg"><title>Eleventy Nunjucks</title>
<path d="M1.95656 12.4135C2.04477 13.0493 2.31048 13.6473 2.72319 14.1389C3.13591 14.6305 3.67889 14.9957 4.2898 15.1927C4.90071 15.3897 5.55477 15.4104 6.17691 15.2524C6.79904 15.0944 7.36402 14.7642 7.80698 14.2997C7.76493 14.2026 7.73958 14.0991 7.73199 13.9935L7.72959 13.9219L7.73199 13.8498C7.74634 13.6586 7.81752 13.4761 7.93637 13.3257C8.05522 13.1753 8.21632 13.0639 8.39898 13.0057C8.58165 12.9476 8.77752 12.9453 8.96146 12.9993C9.14539 13.0533 9.30899 13.1611 9.43122 13.3087C9.55346 13.4564 9.62876 13.6372 9.64746 13.828C9.66615 14.0188 9.62738 14.2108 9.53612 14.3794C9.44487 14.548 9.3053 14.6854 9.13534 14.7741C8.96539 14.8628 8.7728 14.8986 8.58233 14.877C8.02414 15.4948 7.30123 15.9404 6.49853 16.1615C5.69583 16.3826 4.84671 16.37 4.05093 16.1251C3.25515 15.8803 2.54579 15.4134 2.00619 14.7794C1.4666 14.1453 1.11919 13.3704 1.0048 12.5457C0.991529 12.4215 1.02709 12.2971 1.10396 12.1987C1.18082 12.1003 1.29296 12.0357 1.41664 12.0185C1.54031 12.0013 1.66582 12.0329 1.76659 12.1067C1.86736 12.1804 1.93549 12.2904 1.95656 12.4135Z" fill="currentColor"/>
<path d="M5.32612 10.0764C5.70231 10.0764 6.07024 10.1868 6.38432 10.3938C6.69841 10.6008 6.94487 10.8955 7.09316 11.2412C7.24146 11.5869 7.28508 11.9686 7.21862 12.3388C7.15217 12.7091 6.97855 13.0517 6.71928 13.3243C6.46001 13.5969 6.12648 13.7874 5.75999 13.8723C5.39351 13.9572 5.01017 13.9327 4.65746 13.8019C4.30476 13.6711 3.99818 13.4396 3.77569 13.1363C3.55321 12.833 3.42459 12.471 3.40578 12.0953L3.40338 11.9992L3.40578 11.903C3.43045 11.4103 3.64353 10.946 4.00096 10.606C4.35839 10.266 4.83282 10.0764 5.32612 10.0764Z" fill="currentColor"/>
<path d="M5.87511 7.71619C6.82658 7.83904 7.71127 8.27128 8.39293 8.94635C9.0746 9.62141 9.51543 10.5019 9.64753 11.4521C9.66117 11.5764 9.62582 11.7011 9.549 11.7998C9.47218 11.8985 9.35993 11.9633 9.23608 11.9806C9.11222 11.9978 8.98652 11.9661 8.88564 11.8922C8.78476 11.8183 8.71666 11.708 8.69578 11.5847C8.59267 10.8432 8.24861 10.1562 7.71658 9.62944C7.18456 9.10272 6.4941 8.76555 5.75158 8.66987C5.22041 8.60072 4.68043 8.65764 4.17535 8.83602C3.67028 9.0144 3.21432 9.30922 2.84439 9.69661C2.89976 9.82495 2.92647 9.96381 2.92268 10.1035C2.91889 10.2432 2.88468 10.3804 2.82243 10.5056C2.76019 10.6307 2.67141 10.7408 2.56227 10.8281C2.45314 10.9154 2.32628 10.9779 2.19053 11.0112C2.05478 11.0444 1.91341 11.0477 1.77627 11.0208C1.63912 10.9938 1.50951 10.9373 1.39645 10.8551C1.28339 10.7729 1.18961 10.6671 1.12163 10.545C1.05366 10.4228 1.01314 10.2874 1.00288 10.148L1 10.0764L1.0024 10.0043C1.01207 9.87544 1.0476 9.7499 1.10686 9.63513C1.16612 9.52036 1.24791 9.4187 1.34733 9.33624C1.44676 9.25377 1.56178 9.19219 1.68553 9.15517C1.80928 9.11814 1.93923 9.10644 2.0676 9.12075C2.54141 8.59625 3.13534 8.19447 3.79848 7.94984C4.46162 7.70521 5.17419 7.62504 5.87511 7.71619Z" fill="currentColor"/>
<path d="M23.2632 9.87676C23.3126 9.87676 23.362 9.8918 23.405 9.92402C23.4458 9.9541 23.4716 9.99492 23.4866 10.0314C23.5167 10.1023 23.5253 10.1883 23.5253 10.2742C23.5253 10.3215 23.5188 10.3795 23.5103 10.4375V10.4461L22.4167 16.1373C22.3308 16.6121 22.2341 16.9838 22.1245 17.248C22.0171 17.508 21.8903 17.7121 21.7249 17.8281C21.5638 17.942 21.3618 17.9936 21.1319 18H21.0675C20.7237 18 20.438 17.9098 20.2747 17.682C20.2726 17.6799 20.2726 17.6799 20.2704 17.6777C20.2683 17.6734 20.264 17.6691 20.2597 17.6648C20.221 17.6133 20.206 17.5531 20.1974 17.5059C20.1866 17.4457 20.1823 17.3748 20.1823 17.2953C20.1823 17.1385 20.1952 17.0053 20.2274 16.9043C20.2575 16.8098 20.3306 16.6809 20.4895 16.6809L20.5175 16.683C20.5218 16.683 20.5261 16.6852 20.5282 16.6852C20.5347 16.6873 20.5411 16.6873 20.5454 16.6895C20.5583 16.6916 20.5733 16.6959 20.5927 16.7023L20.756 16.7496H20.7581L20.9214 16.7947C20.9407 16.799 20.9579 16.8033 20.9686 16.8055C20.9772 16.8076 20.9815 16.8076 20.9837 16.8076C20.9837 16.8076 20.9858 16.8076 20.988 16.8055C20.9901 16.8033 20.9966 16.8012 21.0052 16.7926C21.0245 16.7732 21.0524 16.7367 21.0825 16.6701C21.1384 16.5455 21.1727 16.3543 21.1727 16.0814C21.1727 16.0664 21.1663 16.0084 21.1448 15.8902C21.1255 15.7807 21.0954 15.6281 21.0546 15.4369L19.8515 10.4332L19.8493 10.4246V10.4182C19.8407 10.3602 19.8343 10.3043 19.8343 10.2613C19.8343 10.1818 19.8429 10.1002 19.8708 10.0336C19.8858 9.99922 19.9095 9.96055 19.946 9.92832C19.9868 9.89609 20.0362 9.87891 20.0856 9.87891H20.829C20.9278 9.87891 21.0159 9.91543 21.0847 9.98633L21.1126 10.0186C21.1384 10.0529 21.1556 10.0916 21.1706 10.1303C21.1899 10.1818 21.2028 10.2398 21.2136 10.3043L21.8667 13.7676L22.378 10.3301C22.3952 10.2055 22.4253 10.0852 22.4876 10.0057C22.552 9.92402 22.6423 9.88106 22.7454 9.88106H23.261L23.2632 9.87676ZM18.1026 7C18.1585 7 18.2122 7.01504 18.2616 7.04941C18.3089 7.08164 18.3411 7.12676 18.3626 7.17188C18.4034 7.25781 18.4163 7.36738 18.4163 7.4834V9.87246C18.4163 9.87461 18.4163 9.87676 18.4163 9.87891H19.1124C19.1661 9.87891 19.2198 9.8918 19.2671 9.92402C19.3144 9.9541 19.3466 9.99707 19.3702 10.0422C19.4132 10.126 19.4261 10.2313 19.4261 10.3408V10.6717C19.4261 10.7791 19.4132 10.8822 19.3702 10.966C19.3466 11.009 19.3144 11.052 19.2671 11.082C19.2198 11.1121 19.1661 11.125 19.1145 11.125H18.4163V14.2574C18.4163 14.4895 18.4313 14.6764 18.4593 14.8203C18.4894 14.9686 18.5259 15.0545 18.5602 15.0975C18.586 15.1297 18.6075 15.1512 18.6269 15.1662L18.6741 15.1963L18.6763 15.1984L18.7386 15.2156C18.7644 15.2199 18.7944 15.2221 18.831 15.2221H19.2671C19.3638 15.2221 19.4583 15.2586 19.5206 15.3467C19.5765 15.424 19.5915 15.5207 19.5915 15.6088V15.9783C19.5915 16.075 19.5743 16.1781 19.5185 16.2598C19.454 16.35 19.3573 16.3887 19.2542 16.3887L18.629 16.3908C18.4571 16.3908 18.3067 16.3779 18.1735 16.3543C18.0296 16.3264 17.8856 16.2662 17.7417 16.1803C17.587 16.0857 17.4624 15.959 17.3657 15.7979C17.269 15.6367 17.196 15.4219 17.1401 15.1641C17.0843 14.902 17.0563 14.5926 17.0563 14.2402V11.1271H16.7685C16.7169 11.1271 16.6632 11.1143 16.6159 11.0842C16.5686 11.0541 16.5364 11.0111 16.5128 10.9682C16.4698 10.8844 16.4569 10.7813 16.4569 10.6738V10.343C16.4569 10.2334 16.4698 10.1281 16.5128 10.0443C16.5364 9.99922 16.5686 9.9584 16.6159 9.92617C16.6632 9.89395 16.7169 9.88106 16.7706 9.88106H17.0585V9.86816L17.1702 7.4791V7.47695L17.1767 7.39316C17.1874 7.31152 17.2046 7.23418 17.2347 7.17188C17.2798 7.08164 17.3636 7.00215 17.4882 7.00215H18.1026V7ZM12.3448 7.25137C12.3835 7.25781 12.4222 7.2707 12.4587 7.29648C12.5038 7.32871 12.5339 7.37168 12.5532 7.4125C12.5897 7.49199 12.6026 7.59297 12.6026 7.69609V15.8129C12.6026 15.9568 12.5897 16.0836 12.5511 16.1803C12.5317 16.2297 12.5017 16.2813 12.4565 16.3199C12.4071 16.3629 12.347 16.3844 12.2825 16.3844H11.3436C11.2792 16.3844 11.219 16.3607 11.1696 16.3178C11.1245 16.277 11.0966 16.2254 11.0794 16.1781C11.0429 16.0814 11.03 15.9568 11.03 15.8129V9.02813C10.9268 9.05391 10.8431 9.07539 10.7829 9.09043C10.7421 9.10117 10.7099 9.10762 10.6884 9.11406C10.6776 9.11621 10.669 9.11836 10.6626 9.12051C10.6604 9.12051 10.6561 9.12266 10.6518 9.12266C10.6497 9.12266 10.6476 9.12266 10.6454 9.1248C10.6454 9.1248 10.6411 9.1248 10.639 9.1248C10.639 9.1248 10.6347 9.1248 10.6304 9.1248C10.6282 9.1248 10.6239 9.1248 10.6218 9.1248C10.6196 9.1248 10.6175 9.1248 10.6175 9.1248C10.5702 9.12695 10.5208 9.11621 10.4757 9.08828C10.4263 9.0582 10.394 9.01523 10.3747 8.97441C10.336 8.89492 10.3253 8.79395 10.3253 8.69512V8.10645C10.3253 8.01191 10.3403 7.91738 10.3811 7.84004C10.4263 7.75625 10.4993 7.69824 10.5917 7.67676L12.2138 7.25781C12.2438 7.24922 12.2761 7.24707 12.3083 7.24707L12.347 7.24922L12.3448 7.25137ZM15.4343 7.24063C15.4729 7.24707 15.5116 7.25996 15.546 7.28574C15.5911 7.31797 15.6212 7.36094 15.6405 7.40176C15.677 7.48125 15.6878 7.58223 15.6878 7.68535V15.8021C15.6878 15.9461 15.6749 16.0729 15.6362 16.1695C15.6169 16.2189 15.5868 16.2705 15.5417 16.3092C15.4923 16.3521 15.4321 16.3736 15.3677 16.3736H14.4288C14.3644 16.3736 14.3042 16.35 14.2548 16.307C14.2097 16.2662 14.1817 16.2146 14.1645 16.1674C14.128 16.0707 14.1151 15.9461 14.1151 15.8021V9.01738C14.012 9.04316 13.9282 9.06465 13.8681 9.07969C13.8272 9.09043 13.795 9.09688 13.7735 9.10332C13.7628 9.10547 13.7542 9.10762 13.7477 9.10977C13.7456 9.10977 13.7413 9.11191 13.737 9.11191C13.7349 9.11191 13.7327 9.11191 13.7306 9.11406C13.7284 9.11406 13.7263 9.11406 13.7241 9.11406C13.7241 9.11406 13.7198 9.11406 13.7155 9.11406C13.7134 9.11406 13.7112 9.11406 13.7091 9.11406C13.7069 9.11406 13.7048 9.11406 13.7026 9.11406C13.6554 9.11621 13.606 9.10547 13.5608 9.07754C13.5114 9.04746 13.4792 9.00449 13.4599 8.96367C13.4212 8.88418 13.4104 8.78535 13.4104 8.68438V8.0957C13.4104 8.00117 13.4255 7.90879 13.4663 7.8293C13.5114 7.74551 13.5845 7.6875 13.6768 7.66602L15.2968 7.24922C15.3269 7.24062 15.3591 7.23848 15.3913 7.23848L15.43 7.24063H15.4343Z" fill="currentColor"/>
</svg>
